<?xml version="1.0" encoding="utf-8"?>
<!-- Generator: Adobe Illustrator 27.5.0, SVG Export Plug-In . SVG Version: 6.00 Build 0)  -->
<svg version="1.1" id="Layer_1" xmlns="http://www.w3.org/2000/svg" xmlns:xlink="http://www.w3.org/1999/xlink" x="0px" y="0px"
	 viewBox="0 0 80 48.2" style="enable-background:new 0 0 80 48.2;" xml:space="preserve">
<g>
	<path d="M18.5,17.3c-2.3,0-4.2,1.9-4.2,4.2c0,2.3,1.9,4.2,4.2,4.2s4.2-1.9,4.2-4.2C22.7,19.2,20.8,17.3,18.5,17.3z M18.5,23.7
		c-1.2,0-2.2-1-2.2-2.2s1-2.2,2.2-2.2s2.2,1,2.2,2.2S19.7,23.7,18.5,23.7z"/>
	<path d="M65.9,30.8c-1.9,0-3.4,1.5-3.4,3.4c0,1.9,1.5,3.4,3.4,3.4c1.9,0,3.4-1.5,3.4-3.4C69.3,32.3,67.8,30.8,65.9,30.8z
		 M65.9,35.5c-0.8,0-1.4-0.6-1.4-1.4s0.6-1.4,1.4-1.4s1.4,0.6,1.4,1.4S66.7,35.5,65.9,35.5z"/>
	<path d="M79,30.7h-3.1c-0.1-0.4-0.3-0.8-0.5-1.2l2.2-2.2c0.2-0.2,0.3-0.4,0.3-0.7c0-0.3-0.1-0.5-0.3-0.7l-3.5-3.4
		c-0.4-0.4-1-0.4-1.4,0l-2.2,2.2c-0.4-0.2-0.8-0.3-1.2-0.5v-3c0-0.6-0.4-1-1-1h-4.9c-0.6,0-1,0.4-1,1v3.1c-0.3,0.1-0.7,0.3-1,0.4
		c-0.3-2.1-1-4.1-2-5.9l0.2,0.2c0.2,0.2,0.5,0.3,0.7,0.3s0.5-0.1,0.7-0.3l2.5-2.5c0.2-0.2,0.3-0.4,0.3-0.7s-0.1-0.5-0.3-0.7
		l-1.4-1.4c0.1-0.2,0.1-0.3,0.2-0.5h2c0.6,0,1-0.4,1-1V8.6c0-0.6-0.4-1-1-1h-2c-0.1-0.2-0.1-0.3-0.2-0.5l1.4-1.4
		c0.2-0.2,0.3-0.4,0.3-0.7c0-0.3-0.1-0.5-0.3-0.7L61,1.8c-0.4-0.4-1-0.4-1.4,0l-1.4,1.4C58,3.1,57.8,3.1,57.7,3V1c0-0.6-0.4-1-1-1
		h-3.5c-0.6,0-1,0.4-1,1v2c-0.2,0.1-0.3,0.1-0.5,0.2l-1.4-1.4c-0.4-0.4-1-0.4-1.4,0l-2.5,2.5C46.1,4.4,46,4.7,46,5s0.1,0.5,0.3,0.7
		l1.4,1.4c-0.1,0.2-0.1,0.3-0.2,0.5h-2c-0.6,0-1,0.4-1,1v1.1c-0.2,0-0.4,0-0.6,0c-5,0-9.7,2.1-13,5.7c0,0,0-0.1,0-0.1l3.1-3.1
		c0.2-0.2,0.3-0.4,0.3-0.7c0-0.3-0.1-0.5-0.3-0.7l-4.6-4.6c-0.4-0.4-1-0.4-1.4,0l-3.1,3.1c-0.6-0.3-1.3-0.6-2-0.8V4c0-0.6-0.4-1-1-1
		h-6.6c-0.6,0-1,0.4-1,1v4.3c-0.7,0.2-1.3,0.5-2,0.8L9.1,6.1c-0.4-0.4-1-0.4-1.4,0l-4.6,4.6c-0.2,0.2-0.3,0.4-0.3,0.7
		s0.1,0.5,0.3,0.7l3.1,3.1c-0.3,0.6-0.6,1.3-0.8,2H1c-0.6,0-1,0.4-1,1v6.5c0,0.6,0.4,1,1,1h4.4c0.2,0.7,0.5,1.3,0.8,2l-3.1,3.1
		c-0.2,0.2-0.3,0.4-0.3,0.7s0.1,0.5,0.3,0.7l4.6,4.6c0.4,0.4,1,0.4,1.4,0l3.1-3.1c0.6,0.3,1.3,0.6,2,0.8v4.3c0,0.6,0.4,1,1,1h6.6
		c0.6,0,1-0.4,1-1v-4.3c0.7-0.2,1.3-0.5,2-0.8l3.1,3.1c0.3,0.3,0.8,0.4,1.2,0.1c3.3,5,8.8,8,14.8,8c3.7,0,7.2-1.1,10.1-3.1
		c0,0.2,0.1,0.4,0.3,0.5l3.5,3.4c0.4,0.4,1,0.4,1.4,0l2.2-2.2c0.4,0.2,0.8,0.3,1.2,0.5v3.1c0,0.6,0.4,1,1,1h4.9c0.6,0,1-0.4,1-1
		v-3.1c0.4-0.1,0.8-0.3,1.2-0.5l2.2,2.2c0.4,0.4,1,0.4,1.4,0l3.5-3.4c0.2-0.2,0.3-0.4,0.3-0.7s-0.1-0.5-0.3-0.7l-2.2-2.2
		c0.2-0.4,0.3-0.8,0.5-1.2H79c0.6,0,1-0.4,1-1v-4.9C80,31.2,79.6,30.7,79,30.7z M46.5,9.6h1.7c0.5,0,0.9-0.3,1-0.8
		c0.1-0.5,0.3-1,0.6-1.4C50.1,7,50,6.5,49.7,6.2L48.4,5l1.1-1.1l1.2,1.2c0.3,0.3,0.8,0.4,1.2,0.2c0.5-0.3,1-0.5,1.4-0.6
		c0.4-0.1,0.8-0.5,0.8-1V2h1.5v1.7c0,0.5,0.3,0.9,0.8,1c0.5,0.1,1,0.3,1.4,0.6c0.4,0.2,0.9,0.2,1.2-0.2l1.2-1.2L61.4,5l-1.2,1.2
		C59.8,6.5,59.8,7,60,7.4c0.3,0.4,0.5,0.9,0.6,1.4c0.1,0.4,0.5,0.7,1,0.7h1.7v1.5h-1.7c-0.5,0-0.8,0.3-1,0.7c-0.1,0.5-0.3,1-0.6,1.4
		c-0.2,0.4-0.2,0.9,0.2,1.2l1.2,1.2l-1.1,1.1l-1.2-1.2c-0.2-0.2-0.4-0.3-0.7-0.3c-0.2,0-0.3,0-0.5,0.1c-0.2,0.1-0.4,0.2-0.6,0.3
		c-0.1-0.2-0.3-0.3-0.4-0.5c-0.2-0.2-0.3-0.3-0.5-0.5c-0.3-0.3-0.5-0.5-0.8-0.7c-0.2-0.1-0.3-0.3-0.5-0.4c-0.3-0.2-0.6-0.4-0.9-0.6
		c0.2,0,0.4,0.1,0.6,0.1c1.5,0,2.7-1.2,2.7-2.7s-1.2-2.7-2.7-2.7s-2.7,1.2-2.7,2.7c0,0.6,0.2,1.2,0.6,1.7c-0.1-0.1-0.3-0.2-0.4-0.2
		c-0.1-0.1-0.2-0.1-0.3-0.1c-0.4-0.2-0.8-0.4-1.2-0.6c-0.2-0.1-0.3-0.1-0.5-0.2c-0.3-0.1-0.7-0.3-1-0.4c-0.2-0.1-0.4-0.1-0.6-0.2
		c-0.3-0.1-0.7-0.2-1-0.3c-0.2,0-0.4-0.1-0.7-0.1c-0.2,0-0.3-0.1-0.5-0.1V9.6z M54.2,10.3c0-0.4,0.3-0.7,0.7-0.7
		c0.4,0,0.7,0.3,0.7,0.7S55.3,11,54.9,11C54.5,11,54.2,10.7,54.2,10.3z M25.7,31.8c-0.3-0.3-0.8-0.4-1.2-0.2
		c-0.9,0.5-1.9,0.9-2.9,1.2c-0.4,0.1-0.7,0.5-0.7,1v4.1h-4.6v-4.1c0-0.5-0.3-0.9-0.7-1c-1-0.3-2-0.7-2.9-1.2
		c-0.4-0.2-0.9-0.2-1.2,0.2l-2.9,2.9l-3.2-3.2l2.9-2.9c0.3-0.3,0.4-0.8,0.2-1.2c-0.5-0.9-0.9-1.9-1.2-2.9c-0.1-0.4-0.5-0.7-1-0.7H2
		v-4.5h4.1c0.5,0,0.9-0.3,1-0.7c0.3-1,0.7-2,1.2-2.9c0.2-0.4,0.2-0.9-0.2-1.2l-2.9-2.9l3.2-3.2l2.9,2.9c0.3,0.3,0.8,0.4,1.2,0.2
		c0.9-0.5,1.9-0.9,2.9-1.2c0.4-0.1,0.7-0.5,0.7-1V5h4.6v4.1c0,0.5,0.3,0.9,0.7,1c1,0.3,2,0.7,2.9,1.2c0.4,0.2,0.9,0.2,1.2-0.2
		l2.9-2.9l3.2,3.2l-2.9,2.9c-0.3,0.3-0.4,0.8-0.2,1.2c0.3,0.5,0.5,1,0.7,1.5c-0.1,0.1-0.2,0.3-0.3,0.4c-0.1,0.2-0.2,0.4-0.4,0.5
		c-0.1,0.2-0.3,0.4-0.4,0.7c-0.1,0.2-0.2,0.4-0.3,0.6c-0.1,0.2-0.2,0.5-0.3,0.7c-0.1,0.2-0.2,0.4-0.3,0.6c-0.1,0.2-0.2,0.5-0.3,0.7
		c-0.1,0.2-0.1,0.4-0.2,0.6c-0.1,0.3-0.2,0.5-0.2,0.8c-0.1,0.2-0.1,0.4-0.2,0.6c-0.1,0.3-0.1,0.5-0.2,0.8c0,0.2-0.1,0.4-0.1,0.5
		c0,0.3-0.1,0.6-0.1,0.9c0,0.2,0,0.3-0.1,0.5c0,0.5-0.1,0.9-0.1,1.4c0,0.5,0,0.9,0.1,1.4c0,0.1,0,0.3,0,0.4c0,0.4,0.1,0.7,0.1,1.1
		c0,0.1,0,0.2,0.1,0.3c0.1,0.5,0.2,0.9,0.3,1.3c0,0.1,0.1,0.2,0.1,0.3c0.1,0.4,0.2,0.7,0.3,1.1c0,0.1,0,0.1,0.1,0.2L25.7,31.8z
		 M30.2,34.9c-1.3-2.3-2-5-2-7.6c0-0.9,0.1-1.7,0.2-2.6c0.1-0.6,0.2-1.2,0.4-1.7c0.2-0.7,0.4-1.4,0.7-2.1c0.5-1.1,1.1-2.1,1.9-3.1
		c3-3.9,7.6-6.2,12.5-6.2c0.5,0,1,0,1.5,0.1c1.1,0.1,2.1,0.3,3.1,0.6c3,0.9,5.6,2.7,7.7,5.2c1.9,2.3,3,5,3.4,8c0,0,0,0,0,0
		c0.1,0.6,0.1,1.2,0.1,1.8c0,0.9-0.1,1.8-0.2,2.6c-0.4,2.6-1.5,5-3.2,7.1c-3,3.8-7.5,5.9-12.3,5.9C38.2,42.9,32.9,39.8,30.2,34.9z
		 M78,35.6h-2.8c-0.5,0-0.8,0.3-1,0.7c-0.2,0.7-0.5,1.5-0.9,2.1c-0.2,0.4-0.2,0.9,0.2,1.2l2,2l-2,2l-2-2c-0.3-0.3-0.8-0.4-1.2-0.2
		c-0.6,0.4-1.4,0.7-2.1,0.9c-0.4,0.1-0.7,0.5-0.7,1v2.8h-2.9v-2.8c0-0.5-0.3-0.8-0.7-1c-0.8-0.2-1.5-0.5-2.1-0.9
		c-0.4-0.2-0.9-0.2-1.2,0.2l-2,2l-2-2l2-2c0.3-0.3,0.4-0.8,0.2-1.2c-0.1-0.2-0.2-0.4-0.3-0.6c0.1-0.1,0.2-0.3,0.3-0.4
		c0.1-0.2,0.3-0.4,0.4-0.6c0.1-0.2,0.3-0.4,0.4-0.7c0.1-0.2,0.2-0.4,0.3-0.6c0.1-0.2,0.2-0.5,0.4-0.7c0.1-0.2,0.2-0.4,0.3-0.6
		c0.1-0.2,0.2-0.5,0.3-0.7c0.1-0.2,0.2-0.4,0.2-0.6c0.1-0.3,0.2-0.5,0.2-0.8c0.1-0.2,0.1-0.4,0.2-0.6c0.1-0.3,0.1-0.6,0.2-0.8
		c0-0.2,0.1-0.4,0.1-0.6c0.1-0.3,0.1-0.6,0.1-1c0-0.2,0-0.3,0.1-0.5c0-0.5,0.1-1,0.1-1.5c0-0.2,0-0.4,0-0.5c0.7-0.4,1.4-0.7,2.1-0.8
		c0.4-0.1,0.8-0.5,0.8-1v-2.8h2.9v2.8c0,0.5,0.3,0.9,0.8,1c0.7,0.2,1.4,0.5,2.1,0.9c0.4,0.2,0.9,0.2,1.2-0.2l2-2l2,2l-2,2
		c-0.3,0.3-0.4,0.8-0.2,1.2c0.4,0.7,0.7,1.4,0.9,2.1c0.1,0.4,0.5,0.7,1,0.7H78V35.6z"/>
	<path d="M43.9,35.2c-1.7,0-3,1.4-3,3s1.4,3,3,3c1.7,0,3-1.4,3-3S45.6,35.2,43.9,35.2z M43.9,39.2c-0.6,0-1-0.5-1-1c0-0.6,0.5-1,1-1
		s1,0.5,1,1C45,38.8,44.5,39.2,43.9,39.2z"/>
	<path d="M45.2,13.5c-0.4-0.1-0.8-0.2-1.3-0.2c-2.4,0-4.4,2-4.4,4.4c0,0,0,0.1,0,0.1l0.1,0.7c0,0,0,0,0,0l1.2,12.2l0.1,0.7
		c0,1.7,1.4,3.1,3,3.1c1.7,0,3.1-1.4,3.1-3l1.3-13c0,0,0,0,0,0l0.1-0.7c0,0,0-0.1,0-0.1c0-0.6-0.1-1.1-0.3-1.6
		C47.5,14.9,46.5,13.9,45.2,13.5z M46.3,18.3C46.3,18.3,46.3,18.3,46.3,18.3L45,31.4c0,0.6-0.5,1.1-1.1,1.1c-0.6,0-1-0.5-1.1-1.2
		l-1.3-12.9c0,0,0-0.1,0-0.1l-0.1-0.6c0-1.3,1.1-2.4,2.4-2.4c0.2,0,0.5,0,0.7,0.1c0.7,0.2,1.3,0.7,1.6,1.5c0.1,0.2,0.2,0.5,0.2,0.8
		L46.3,18.3z"/>
</g>
</svg>
