<?xml version="1.0" encoding="utf-8"?>
<!-- Generator: Adobe Illustrator 27.5.0, SVG Export Plug-In . SVG Version: 6.00 Build 0)  -->
<svg version="1.1" id="Layer_1" xmlns="http://www.w3.org/2000/svg" xmlns:xlink="http://www.w3.org/1999/xlink" x="0px" y="0px"
	 viewBox="0 0 62.5 90" style="enable-background:new 0 0 62.5 90;" xml:space="preserve">
<rect y="11.3" width="2.5" height="7.5"/>
<rect y="31.3" width="2.5" height="7.5"/>
<rect y="21.3" width="2.5" height="7.5"/>
<rect y="61.3" width="2.5" height="7.5"/>
<rect y="71.3" width="2.5" height="7.5"/>
<rect x="60" y="38.8" width="2.5" height="7.5"/>
<rect y="41.3" width="2.5" height="7.5"/>
<rect x="60" y="28.8" width="2.5" height="7.5"/>
<rect y="51.3" width="2.5" height="7.5"/>
<polygon points="5.2,0 0,0 0,8.8 2.5,8.8 2.5,2.5 5.2,2.5 "/>
<rect x="13.7" y="87.5" width="7.5" height="2.5"/>
<rect x="60" y="78.8" width="2.5" height="7.5"/>
<rect x="60" y="58.8" width="2.5" height="7.5"/>
<rect x="60" y="68.8" width="2.5" height="7.5"/>
<polygon points="61.2,18.2 59.4,20 60,20.5 60,26.3 62.5,26.3 62.5,19.5 "/>
<rect x="23.7" y="87.5" width="7.5" height="2.5"/>
<rect x="3.7" y="87.5" width="7.5" height="2.5"/>
<rect x="43.7" y="87.5" width="7.5" height="2.5"/>
<rect x="60" y="48.8" width="2.5" height="7.5"/>
<rect x="33.7" y="87.5" width="7.5" height="2.5"/>
<rect x="53.7" y="87.5" width="7.5" height="2.5"/>
<rect x="27.7" width="7.5" height="2.5"/>
<polygon points="43.5,4.1 45.3,2.3 43,0 37.7,0 37.7,2.5 41.9,2.5 "/>
<rect y="81.3" width="2.5" height="7.5"/>
<rect x="54.7" y="10.9" transform="matrix(0.7071 -0.7071 0.7071 0.7071 5.9997 43.8764)" width="2.5" height="7.5"/>
<rect x="7.7" width="7.5" height="2.5"/>
<rect x="17.7" width="7.5" height="2.5"/>
<rect x="47.5" y="3.9" transform="matrix(0.7071 -0.7071 0.7071 0.7071 8.8987 36.7343)" width="2.5" height="7.5"/>
<rect x="50.7" y="20" width="5.5" height="2.5"/>
<polygon points="40,22.5 46.7,22.5 46.7,20 42.5,20 42.5,15.8 40,15.8 "/>
<rect x="40" y="6.3" width="2.5" height="5.5"/>
</svg>
