<?xml version="1.0" encoding="utf-8"?>
<!-- Generator: Adobe Illustrator 27.5.0, SVG Export Plug-In . SVG Version: 6.00 Build 0)  -->
<svg version="1.1" id="Layer_1" xmlns="http://www.w3.org/2000/svg" xmlns:xlink="http://www.w3.org/1999/xlink" x="0px" y="0px"
	 viewBox="0 0 62 62" style="enable-background:new 0 0 62 62;" xml:space="preserve">
<g>
	<path d="M61,26h-6c-0.6,0-1,0.4-1,1v1H30c-0.3,0-0.5,0.1-0.7,0.3L28,29.6l-1.3-1.3C26.5,28.1,26.3,28,26,28H8v-1c0-0.6-0.4-1-1-1H1
		c-0.6,0-1,0.4-1,1v24c0,0.6,0.4,1,1,1h6c0.6,0,1-0.4,1-1v-1h8c0,0.1,0,0.1,0,0.2c0,2.1,1.7,3.8,3.8,3.8c0.1,0,0.1,0,0.2,0
		c0,0.1,0,0.1,0,0.2c0,2.1,1.7,3.8,3.8,3.8c0.1,0,0.1,0,0.2,0c0,0.1,0,0.1,0,0.2c0,2.1,1.7,3.8,3.8,3.8c1,0,2-0.4,2.7-1.1l0.5-0.5
		l0.5,0.5c0.7,0.7,1.7,1.1,2.7,1.1c2.1,0,3.8-1.7,3.8-3.8c0-0.1,0-0.1,0-0.2c0.1,0,0.1,0,0.2,0c2.1,0,3.8-1.7,3.8-3.8
		c0-0.1,0-0.1,0-0.2c0.1,0,0.1,0,0.2,0c2.1,0,3.8-1.7,3.8-3.8c0-0.1,0-0.1,0-0.2h8v1c0,0.6,0.4,1,1,1h6c0.6,0,1-0.4,1-1V27
		C62,26.4,61.6,26,61,26z M6,50H2V28h4v2V50z M8,30h17.6l3.9,3.9c0.3,0.3,0.5,0.8,0.5,1.3c0,1-0.8,1.8-1.8,1.8c-0.5,0-1-0.2-1.3-0.5
		l-4.2-4.2l-1.4,1.4l0.8,0.8l-9,9c-0.7,0.7-1.1,1.7-1.1,2.7c0,0.7,0.2,1.3,0.5,1.8H8V30z M29.1,59.5c-0.3,0.3-0.8,0.5-1.3,0.5
		c-1,0-1.8-0.8-1.8-1.8c0-0.5,0.2-0.9,0.5-1.3l0.5-0.5l2.6,2.6L29.1,59.5z M36,58.2c0,1-0.8,1.8-1.8,1.8c-0.5,0-1-0.2-1.3-0.5
		l-5.3-5.3c-0.3-0.3-0.5-0.8-0.5-1.3c0-1,0.8-1.8,1.8-1.8c0.5,0,1,0.2,1.3,0.5l5.3,5.3C35.8,57.2,36,57.7,36,58.2z M40,54.2
		c0,1-0.8,1.8-1.8,1.8c-0.5,0-1-0.2-1.3-0.5l-5.3-5.3c-0.3-0.3-0.5-0.8-0.5-1.3c0-1,0.8-1.8,1.8-1.8c0.5,0,1,0.2,1.3,0.5l5.3,5.3
		C39.8,53.2,40,53.7,40,54.2z M42.2,52c-0.5,0-1-0.2-1.3-0.5l-5.3-5.3c-0.3-0.3-0.5-0.8-0.5-1.3c0-1,0.8-1.8,1.8-1.8
		c0.5,0,1,0.2,1.3,0.5l5.3,5.3c0.3,0.3,0.5,0.8,0.5,1.3C44,51.2,43.2,52,42.2,52z M39,40.8c0-1,0.8-1.8,1.8-1.8c0.5,0,1,0.2,1.3,0.5
		l5.3,5.3c0.3,0.3,0.5,0.8,0.5,1.3c0,1-0.8,1.8-1.8,1.8c-0.5,0-1-0.2-1.3-0.5l-5.3-5.3C39.2,41.8,39,41.3,39,40.8z M49.5,48
		c0.3-0.5,0.5-1.2,0.5-1.8c0-1-0.4-2-1.1-2.7l0,0l-5.3-5.3c-0.7-0.7-1.7-1.1-2.7-1.1c-2.1,0-3.8,1.7-3.8,3.8c0,0.1,0,0.1,0,0.2
		c-0.1,0-0.1,0-0.2,0c-2.1,0-3.8,1.7-3.8,3.8c0,0.1,0,0.1,0,0.2c-0.1,0-0.1,0-0.2,0c-2.1,0-3.8,1.7-3.8,3.8c0,0.1,0,0.1,0,0.2
		c-0.1,0-0.1,0-0.2,0c-2.1,0-3.8,1.7-3.8,3.8c0,0.8,0.2,1.5,0.6,2.1l-0.5,0.5c-0.3,0.3-0.8,0.5-1.3,0.5c-1,0-1.8-0.8-1.8-1.8
		c0-0.5,0.2-0.9,0.5-1.3l2.2-2.2l-1.4-1.4l-2.2,2.2c-0.3,0.3-0.8,0.5-1.3,0.5c-1,0-1.8-0.8-1.8-1.8c0-0.5,0.2-0.9,0.5-1.3l2.2-2.2
		l-1.4-1.4l-2.2,2.2c-0.3,0.3-0.8,0.5-1.3,0.5c-1,0-1.8-0.8-1.8-1.8c0-0.5,0.2-0.9,0.5-1.3l9-9l2,2c0.7,0.7,1.7,1.1,2.7,1.1
		c2.1,0,3.8-1.7,3.8-3.8c0-1-0.4-2-1.1-2.7L29.4,31l1-1H54v18H49.5z M60,50h-4V28h4V50z"/>
	<path d="M31,20c3.9,0,7-3.1,7-7s-3.1-7-7-7s-7,3.1-7,7S27.1,20,31,20z M31,8c2.8,0,5,2.2,5,5s-2.2,5-5,5s-5-2.2-5-5S28.2,8,31,8z"
		/>
	<path d="M7,16c1.3,0,2.4-0.8,2.8-2H18v1c0,0.6,0.4,1,1,1h1.4c0.2,0.8,0.5,1.5,0.9,2.2l-1.1,1.1c-0.4,0.4-0.4,1,0,1.4l3,3
		c0.4,0.4,1,0.4,1.4,0l1.1-1.1c0.7,0.4,1.5,0.7,2.2,0.9V25c0,0.6,0.4,1,1,1h4c0.6,0,1-0.4,1-1v-1.4c0.8-0.2,1.5-0.5,2.2-0.9l1,1
		c0.4,0.4,1,0.4,1.4,0l2.7-2.7h4.8c0.4,1.2,1.5,2,2.8,2c1.7,0,3-1.3,3-3s-1.3-3-3-3c-1.3,0-2.4,0.8-2.8,2h-4.8l-0.8-0.8
		c0.4-0.7,0.7-1.5,0.9-2.2H43c0.6,0,1-0.4,1-1v-1h8.2c0.4,1.2,1.5,2,2.8,2c1.7,0,3-1.3,3-3s-1.3-3-3-3c-1.3,0-2.4,0.8-2.8,2H44v-1
		c0-0.6-0.4-1-1-1h-1.4c-0.2-0.8-0.5-1.5-0.9-2.2l1.1-1.1c0.4-0.4,0.4-1,0-1.4l-3-3c-0.4-0.4-1-0.4-1.4,0l-1.1,1.1
		C35.5,3,34.8,2.6,34,2.4V1c0-0.6-0.4-1-1-1h-4c-0.6,0-1,0.4-1,1v1.4c-0.8,0.2-1.5,0.5-2.2,0.9l-1-1c-0.4-0.4-1-0.4-1.4,0L20.6,5
		h-4.8c-0.4-1.2-1.5-2-2.8-2c-1.7,0-3,1.3-3,3s1.3,3,3,3c1.3,0,2.4-0.8,2.8-2h4.8l0.8,0.8c-0.4,0.7-0.7,1.5-0.9,2.2H19
		c-0.6,0-1,0.4-1,1v1H9.8c-0.4-1.2-1.5-2-2.8-2c-1.7,0-3,1.3-3,3S5.3,16,7,16z M55,12c0.6,0,1,0.4,1,1s-0.4,1-1,1s-1-0.4-1-1
		S54.4,12,55,12z M49,19c0.6,0,1,0.4,1,1s-0.4,1-1,1s-1-0.4-1-1S48.4,19,49,19z M13,7c-0.6,0-1-0.4-1-1s0.4-1,1-1s1,0.4,1,1
		S13.6,7,13,7z M20,12h1.2c0.5,0,0.9-0.3,1-0.8c0.2-1.1,0.6-2.1,1.3-3.1c0.3-0.4,0.2-0.9-0.1-1.2L22.4,6L24,4.4l0.9,0.9
		c0.3,0.3,0.9,0.4,1.2,0.1c1-0.6,2-1,3.1-1.3c0.5-0.1,0.8-0.5,0.8-1V2h2v1.2c0,0.5,0.3,0.9,0.8,1c1,0.2,2.1,0.6,3,1.3
		c0.4,0.3,0.9,0.2,1.2-0.1L38,4.4L39.6,6l-0.9,0.9c-0.3,0.3-0.4,0.9-0.1,1.2c0.6,1,1.1,2,1.3,3c0.1,0.5,0.5,0.8,1,0.8H42v2h-1.2
		c-0.5,0-0.9,0.3-1,0.8c-0.2,1.1-0.6,2.1-1.3,3.1c-0.3,0.4-0.2,0.9,0.1,1.2l0.9,0.9L38,21.6l-0.9-0.9c-0.3-0.3-0.9-0.4-1.2-0.1
		c-1,0.6-2,1-3.1,1.3c-0.5,0.1-0.8,0.5-0.8,1V24h-2v-1.2c0-0.5-0.3-0.9-0.8-1c-1-0.2-2.1-0.6-3-1.3c-0.4-0.3-0.9-0.2-1.2,0.1
		L24,21.6L22.4,20l0.9-0.9c0.3-0.3,0.4-0.9,0.1-1.2c-0.6-1-1.1-2-1.3-3c-0.1-0.5-0.5-0.8-1-0.8H20V12z M7,12c0.6,0,1,0.4,1,1
		s-0.4,1-1,1s-1-0.4-1-1S6.4,12,7,12z"/>
</g>
</svg>
