<?xml version="1.0" encoding="UTF-8"?>
<svg id="Layer_1" data-name="Layer 1" xmlns="http://www.w3.org/2000/svg" viewBox="0 0 710.74 2964.89">
  <defs>
    <style>
      .cls-1, .cls-2, .cls-3, .cls-4, .cls-5, .cls-6, .cls-7 {
        stroke: #000;
        stroke-linejoin: round;
      }

      .cls-1, .cls-4 {
        fill: none;
        stroke-width: 15px;
      }

      .cls-2 {
        stroke-width: 5px;
      }

      .cls-3 {
        stroke-width: 8px;
      }

      .cls-4, .cls-5, .cls-7 {
        stroke-linecap: round;
      }

      .cls-6 {
        stroke-width: 3px;
      }

      .cls-7 {
        stroke-width: 2px;
      }
    </style>
  </defs>
  <path class="cls-6" d="m11.4,106.2h64.3V41.9H11.4v64.3Zm14.84-49.46h34.62v34.62H26.24v-34.62Z"/>
  <path d="m256.8,665.64h44.51v-44.51h-44.51v44.51Zm14.84-29.68h14.84v14.84h-14.84v-14.84Z"/>
  <path class="cls-7" d="m21.45,338.14h44.51v-44.51H21.45s0,44.51,0,44.51Zm14.84-29.68h14.84v14.84h-14.84s0-14.84,0-14.84Z"/>
  <path class="cls-2" d="m530.64,316.76h44.51v-44.51h-44.51s0,44.51,0,44.51Zm14.84-29.68h14.84v14.84h-14.84s0-14.84,0-14.84Z"/>
  <path class="cls-2" d="m331.47,279.17h-74.19v74.19h74.19v-74.19Zm-14.84,59.35h-44.51v-44.51h44.51v44.51Z"/>
  <rect x="35.93" y="102.92" width="14.84" height="197.84"/>
  <rect x="545.12" y="306.1" width="14.84" height="305.61"/>
  <rect x="65.89" y="308.46" width="197.84" height="14.84"/>
  <path d="m452.17,1088.41v-64.3h-64.3v64.3h64.3Zm-49.46-14.84v-34.62h34.62v34.62h-34.62Z"/>
  <path d="m684.12,1078.36v-44.51h-44.51v44.51s44.51,0,44.51,0Zm-29.68-14.84v-14.84h14.84v14.84s-14.84,0-14.84,0Z"/>
  <path class="cls-5" d="m625.15,768.34v74.19h74.19v-74.19h-74.19Zm59.35,14.84v44.51h-44.51v-44.51h44.51Z"/>
  <rect x="448.89" y="1049.05" width="197.84" height="14.84"/>
  <rect x="654.43" y="836.08" width="14.84" height="197.84"/>
  <rect x="496.92" y="452.51" width="59.66" height="14.84"/>
  <g>
    <rect x="410.17" y="413.41" width="102.17" height="92.46" rx="2.5" ry="2.5"/>
    <path d="m509.85,415.91v87.46h-97.17v-87.46h97.17m0-5h-97.17c-2.76,0-5,2.24-5,5v87.46c0,2.76,2.24,5,5,5h97.17c2.76,0,5-2.24,5-5v-87.46c0-2.76-2.24-5-5-5h0Z"/>
  </g>
  <path d="m162.94,523.77v87.46h-97.17v-87.46h97.17m0-15h-97.17c-8.28,0-15,6.72-15,15v87.46c0,8.28,6.72,15,15,15h97.17c8.28,0,15-6.72,15-15v-87.46c0-8.28-6.72-15-15-15h0Z"/>
  <rect x="100.75" y="697.13" width="62.19" height="55.97"/>
  <path d="m495.09,1325.45h-44.51v44.51h44.51v-44.51Zm-14.84,29.68h-14.84v-14.84h14.84v14.84Z"/>
  <path d="m686.12,1379.87v87.46h-97.17v-87.46h97.17m0-15h-97.17c-8.28,0-15,6.72-15,15v87.46c0,8.28,6.72,15,15,15h97.17c8.28,0,15-6.72,15-15v-87.46c0-8.28-6.72-15-15-15h0Z"/>
  <path d="m651.14,1238v55.97h-62.19v-55.97h62.19m0-15h-62.19c-8.28,0-15,6.72-15,15v55.97c0,8.28,6.72,15,15,15h62.19c8.28,0,15-6.72,15-15v-55.97c0-8.28-6.72-15-15-15h0Z"/>
  <path d="m684.76,621.92v43.73h-232.24v-43.73h232.24m0-15h-232.24c-8.28,0-15,6.72-15,15v43.73c0,8.28,6.72,15,15,15h232.24c8.28,0,15-6.72,15-15v-43.73c0-8.28-6.72-15-15-15h0Z"/>
  <path d="m182.96,1247.9h-44.51v44.51h44.51s0-44.51,0-44.51Zm-14.84,29.68h-14.84v-14.84h14.84s0,14.84,0,14.84Z"/>
  <rect x="153.64" y="952.95" width="14.84" height="305.61"/>
  <rect x="157.02" y="1097.31" width="59.66" height="14.84"/>
  <path d="m319.39,1045.75v87.46h-97.17v-87.46h97.17m0-15h-97.17c-8.28,0-15,6.72-15,15v87.46c0,8.28,6.72,15,15,15h97.17c8.28,0,15-6.72,15-15v-87.46c0-8.28-6.72-15-15-15h0Z"/>
  <rect x="44.39" y="913.44" width="232.24" height="43.73"/>
  <rect class="cls-2" x="48.27" y="420.77" width="39.84" height="39.84"/>
  <rect class="cls-2" x="115.32" y="420.77" width="39.84" height="39.84"/>
  <rect class="cls-2" x="182.37" y="420.77" width="39.84" height="39.84"/>
  <rect class="cls-2" x="249.42" y="420.77" width="39.84" height="39.84"/>
  <rect class="cls-1" x="48.27" y="1403.19" width="39.84" height="39.84"/>
  <rect class="cls-1" x="115.32" y="1403.19" width="39.84" height="39.84"/>
  <rect class="cls-1" x="182.37" y="1403.19" width="39.84" height="39.84"/>
  <rect class="cls-1" x="249.42" y="1403.19" width="39.84" height="39.84"/>
  <rect class="cls-4" x="266.91" y="785.17" width="39.84" height="39.84"/>
  <rect class="cls-4" x="333.96" y="785.17" width="39.84" height="39.84"/>
  <rect class="cls-4" x="401.01" y="785.17" width="39.84" height="39.84"/>
  <rect class="cls-4" x="468.06" y="785.17" width="39.84" height="39.84"/>
  <path d="m699.34,2858.69h-64.3v64.3h64.3v-64.3Zm-14.84,49.46h-34.62v-34.62h34.62v34.62Z"/>
  <path d="m453.94,2299.24h-44.51v44.51h44.51v-44.51Zm-14.84,29.68h-14.84v-14.84h14.84v14.84Z"/>
  <g>
    <path d="m645.28,2670.76v-43.51h43.51v43.51h-43.51Zm14.34-29.68c-.28,0-.5.22-.5.5v14.84c0,.28.22.5.5.5h14.84c.28,0,.5-.22.5-.5v-14.84c0-.28-.22-.5-.5-.5h-14.84Z"/>
    <path d="m688.29,2627.74v42.51h-42.51v-42.51h42.51m-28.68,29.68h14.84c.55,0,1-.45,1-1v-14.84c0-.55-.45-1-1-1h-14.84c-.55,0-1,.45-1,1v14.84c0,.55.45,1,1,1m29.68-30.68h-44.51v44.51h44.51v-44.51h0Zm-29.68,29.68v-14.84h14.84v14.84h-14.84Z"/>
  </g>
  <path d="m180.1,2648.12h-44.51v44.51h44.51s0-44.51,0-44.51Zm-14.84,29.68h-14.84v-14.84h14.84s0,14.84,0,14.84Z"/>
  <path d="m379.27,2685.71h74.19v-74.19h-74.19v74.19Zm14.84-59.35h44.51v44.51h-44.51v-44.51Z"/>
  <rect x="659.97" y="2664.13" width="14.84" height="197.84"/>
  <rect x="150.79" y="2353.17" width="14.84" height="305.61"/>
  <rect x="447.01" y="2641.59" width="197.84" height="14.84"/>
  <path d="m258.56,1876.47v64.3h64.3v-64.3h-64.3Zm49.46,14.84v34.62h-34.62v-34.62h34.62Z"/>
  <path d="m26.62,1886.53v44.51h44.51v-44.51s-44.51,0-44.51,0Zm29.68,14.84v14.84h-14.84v-14.84s14.84,0,14.84,0Z"/>
  <path class="cls-5" d="m85.59,2196.55v-74.19H11.4v74.19h74.19Zm-59.35-14.84v-44.51h44.51v44.51H26.24Z"/>
  <rect x="64" y="1901" width="197.84" height="14.84"/>
  <rect x="41.47" y="1930.97" width="14.84" height="197.84"/>
  <rect x="154.16" y="2497.54" width="59.66" height="14.84"/>
  <rect x="200.89" y="2461.52" width="97.17" height="87.46"/>
  <path d="m644.97,2353.66v87.46h-97.17v-87.46h97.17m0-15h-97.17c-8.28,0-15,6.72-15,15v87.46c0,8.28,6.72,15,15,15h97.17c8.28,0,15-6.72,15-15v-87.46c0-8.28-6.72-15-15-15h0Z"/>
  <rect x="547.8" y="2211.79" width="62.19" height="55.97"/>
  <path d="m215.65,1639.43h44.51v-44.51h-44.51v44.51Zm14.84-29.68h14.84v14.84h-14.84v-14.84Z"/>
  <path d="m121.79,1497.56v87.46H24.62v-87.46h97.17m0-15H24.62c-8.28,0-15,6.72-15,15v87.46c0,8.28,6.72,15,15,15h97.17c8.28,0,15-6.72,15-15v-87.46c0-8.28-6.72-15-15-15h0Z"/>
  <path d="m121.79,1670.92v55.97h-62.19v-55.97h62.19m0-15h-62.19c-8.28,0-15,6.72-15,15v55.97c0,8.28,6.72,15,15,15h62.19c8.28,0,15-6.72,15-15v-55.97c0-8.28-6.72-15-15-15h0Z"/>
  <path d="m258.22,2299.24v43.73H25.98v-43.73h232.24m0-15H25.98c-8.28,0-15,6.72-15,15v43.73c0,8.28,6.72,15,15,15h232.24c8.28,0,15-6.72,15-15v-43.73c0-8.28-6.72-15-15-15h0Z"/>
  <path d="m527.78,1716.99h44.51v-44.51h-44.51s0,44.51,0,44.51Zm14.84-29.68h14.84v14.84h-14.84s0-14.84,0-14.84Z"/>
  <rect x="542.26" y="1706.33" width="14.84" height="305.61"/>
  <rect x="494.06" y="1852.74" width="59.66" height="14.84"/>
  <path d="m488.53,1831.68v87.46h-97.17v-87.46h97.17m0-15h-97.17c-8.28,0-15,6.72-15,15v87.46c0,8.28,6.72,15,15,15h97.17c8.28,0,15-6.72,15-15v-87.46c0-8.28-6.72-15-15-15h0Z"/>
  <rect x="434.11" y="2007.72" width="232.24" height="43.73"/>
  <rect x="622.62" y="2504.28" width="39.84" height="39.84" transform="translate(1285.09 5048.4) rotate(180)"/>
  <rect x="555.57" y="2504.28" width="39.84" height="39.84" transform="translate(1150.99 5048.4) rotate(180)"/>
  <rect x="488.53" y="2504.28" width="39.84" height="39.84" transform="translate(1016.89 5048.4) rotate(180)"/>
  <rect x="421.48" y="2504.28" width="39.84" height="39.84" transform="translate(882.79 5048.4) rotate(180)"/>
  <rect class="cls-3" x="555.57" y="1521.85" width="39.84" height="39.84" transform="translate(1150.99 3083.55) rotate(180)"/>
  <rect class="cls-3" x="421.42" y="1521.74" width="39.84" height="39.84" transform="translate(882.68 3083.33) rotate(180)"/>
  <rect class="cls-3" x="488.47" y="1521.74" width="39.84" height="39.84" transform="translate(1016.78 3083.33) rotate(180)"/>
  <rect class="cls-3" x="622.57" y="1521.74" width="39.84" height="39.84" transform="translate(1284.98 3083.33) rotate(180)"/>
  <rect class="cls-4" x="403.98" y="2139.88" width="39.84" height="39.84" transform="translate(847.81 4319.6) rotate(180)"/>
  <rect class="cls-4" x="336.93" y="2139.88" width="39.84" height="39.84" transform="translate(713.71 4319.6) rotate(180)"/>
  <rect class="cls-4" x="269.88" y="2139.88" width="39.84" height="39.84" transform="translate(579.61 4319.6) rotate(180)"/>
  <rect class="cls-4" x="202.83" y="2139.88" width="39.84" height="39.84" transform="translate(445.51 4319.6) rotate(180)"/>
</svg>